# xmcd
#
# Track frame offsets: 
#        150
#        16711
#        37856
#        46785
#        61078
#        85878
#        110468
#        129601
#        152109
#        173121
#        193986
#        227146
#        253839
#
# Disc length: 3791 seconds
#
# Revision: 0
# Processed by: cddbd v1.5.2PL0 Copyright (c) Steve Scherf et al.
# Submitted via: ExactAudioCopy v0.95a5
#
DISCID=a10ecd0d
DTITLE=Various Artist - 33 th Blues Music Awards 2012
DYEAR=2012
DGENRE=Blues
TTITLE0=You Can't Take Me Blues - Doug Maclead
TTITLE1=The Blues Had A Baby - Chicago Living Blues
TTITLE2=I'm Going Home - Charlie Musselwhite
TTITLE3=New Home - Ericc Bibb
TTITLE4=Heaven Send Me An Angel - Kenny Blues Boss Wayne
TTITLE5=Runaway -Samantha Fish with Trampled Under Foot
TTITLE6=Appreciate What You Got - Terry Hanck
TTITLE7=Got To Get Back - Otis LayHeal Yourself - Ruthie Foster
TTITLE8=Heal Yourself - Ruthie Foster
TTITLE9=Back Wheree I Started - Susan Tedeschi and DerekTrucks
TTITLE10=The Lord Is Waiting The Devil Is Too - Johnny Sansone
TTITLE11=Medicine - Tab Benoit
TTITLE12=Goodbye - Trampled Under Foot
EXTD=
EXTT0=
EXTT1=
EXTT2=
EXTT3=
EXTT4=
EXTT5=
EXTT6=
EXTT7=
EXTT8=
EXTT9=
EXTT10=
EXTT11=
EXTT12=
PLAYORDER=
